<svg width="273" height="40" viewBox="0 0 273 40" fill="none" xmlns="http://www.w3.org/2000/svg">
<g clip-path="url(#clip0_109_687)">
<path d="M18.8589 34.1899H0.670227V7.65615H18.8589V12.9666H5.98067V18.2771H14.6957V23.5875H5.98067V28.8795H18.8589V34.1899ZM38.1949 23.5875V18.2771C38.1949 17.5493 38.0531 16.8646 37.7694 16.2232C37.4979 15.5694 37.1217 15.002 36.6406 14.5208C36.1596 14.0398 35.5921 13.6636 34.9383 13.3922C34.2968 13.1084 33.6122 12.9666 32.8844 12.9666C32.1566 12.9666 31.4659 13.1084 30.8121 13.3922C30.1706 13.6636 29.6094 14.0398 29.1283 14.5208C28.6472 15.002 28.2648 15.5694 27.9811 16.2232C27.7097 16.8646 27.574 17.5493 27.574 18.2771V23.5875H38.1949ZM43.5054 34.1899H38.1949V28.8795H27.574V34.1899H22.2821V18.2771C22.2821 16.8092 22.5596 15.4337 23.1147 14.1508C23.6698 12.8556 24.4223 11.7268 25.3721 10.7647C26.3343 9.80253 27.4568 9.04389 28.7397 8.4888C30.0349 7.93369 31.4165 7.65615 32.8844 7.65615C34.3524 7.65615 35.7278 7.93369 37.0107 8.4888C38.3059 9.04389 39.4346 9.80253 40.3968 10.7647C41.3589 11.7268 42.1176 12.8556 42.6727 14.1508C43.2278 15.4337 43.5054 16.8092 43.5054 18.2771V34.1899ZM46.5584 15.6125C46.5584 14.5147 46.7681 13.4847 47.1875 12.5225C47.6069 11.5603 48.1743 10.7216 48.8898 10.0061C49.6176 9.27827 50.4626 8.70467 51.4247 8.28526C52.3869 7.86585 53.4169 7.65615 54.5148 7.65615H66.69V12.9666H54.5148C54.1447 12.9666 53.7994 13.0344 53.4786 13.1701C53.1579 13.3058 52.8742 13.4971 52.6275 13.7437C52.3931 13.9781 52.2081 14.2557 52.0724 14.5764C51.9366 14.8971 51.8688 15.2425 51.8688 15.6125C51.8688 15.9826 51.9366 16.3342 52.0724 16.6673C52.2081 16.988 52.3931 17.2717 52.6275 17.5184C52.8742 17.7527 53.1579 17.9378 53.4786 18.0735C53.7994 18.2092 54.1447 18.2771 54.5148 18.2771H59.8253C60.9232 18.2771 61.9532 18.4867 62.9153 18.9061C63.8898 19.3133 64.7347 19.8806 65.4502 20.6084C66.178 21.3239 66.7455 22.1689 67.1525 23.1434C67.572 24.1056 67.7817 25.1356 67.7817 26.2335C67.7817 27.3313 67.572 28.3614 67.1525 29.3235C66.7455 30.2857 66.178 31.1306 65.4502 31.8584C64.7347 32.5739 63.8898 33.1414 62.9153 33.5607C61.9532 33.9802 60.9232 34.1899 59.8253 34.1899H48.0386V28.8795H59.8253C60.1953 28.8795 60.5407 28.8116 60.8615 28.6759C61.1821 28.5402 61.4597 28.3552 61.6941 28.1207C61.9408 27.8741 62.132 27.5903 62.2677 27.2697C62.4034 26.9489 62.4713 26.6035 62.4713 26.2335C62.4713 25.8634 62.4034 25.518 62.2677 25.1973C62.132 24.8765 61.9408 24.5989 61.6941 24.3646C61.4597 24.1179 61.1821 23.9267 60.8615 23.7911C60.5407 23.6554 60.1953 23.5875 59.8253 23.5875H54.5148C53.4169 23.5875 52.3869 23.3778 51.4247 22.9584C50.4626 22.5389 49.6176 21.9716 48.8898 21.2561C48.1743 20.5283 47.6069 19.6833 47.1875 18.7212C46.7681 17.7466 46.5584 16.7104 46.5584 15.6125ZM83.2134 34.1899H77.9215V25.8819C76.7496 25.5858 75.6702 25.1109 74.6834 24.4572C73.7088 23.8034 72.8701 23.0262 72.1669 22.1257C71.4638 21.2128 70.9148 20.2076 70.5201 19.1097C70.1378 17.9995 69.9465 16.8338 69.9465 15.6125V7.65615H75.257V15.6125C75.257 16.3403 75.3926 17.0312 75.6641 17.6849C75.9478 18.3264 76.3302 18.8877 76.8113 19.3687C77.2923 19.8498 77.8536 20.2322 78.495 20.5159C79.1488 20.7874 79.8397 20.9231 80.5675 20.9231C81.2953 20.9231 81.9799 20.7874 82.6213 20.5159C83.275 20.2322 83.8425 19.8498 84.3236 19.3687C84.8047 18.8877 85.1809 18.3264 85.4523 17.6849C85.736 17.0312 85.8779 16.3403 85.8779 15.6125V7.65615H91.1698V15.6125C91.1698 16.8338 90.9724 17.9995 90.5777 19.1097C90.1953 20.2076 89.6525 21.2128 88.9495 22.1257C88.2463 23.0262 87.4075 23.8034 86.4329 24.4572C85.4584 25.1109 84.3853 25.5858 83.2134 25.8819V34.1899Z" fill="#F97C09"/>
<path d="M193.637 23.5875C193.637 25.0554 193.359 26.4369 192.804 27.7322C192.249 29.0152 191.491 30.1377 190.528 31.0998C189.579 32.0497 188.456 32.8021 187.161 33.3573C185.878 33.9123 184.502 34.1899 183.035 34.1899C182.146 34.1899 181.258 34.0788 180.371 33.8568V28.1578C180.765 28.3922 181.191 28.5711 181.646 28.6944C182.103 28.8178 182.566 28.8795 183.035 28.8795C183.762 28.8795 184.447 28.7437 185.088 28.4723C185.742 28.1886 186.309 27.8062 186.791 27.3252C187.272 26.8441 187.648 26.2828 187.919 25.6414C188.203 24.9999 188.345 24.3153 188.345 23.5875V7.65615H193.637V23.5875ZM224.26 21.034C224.26 22.2922 224.094 23.5073 223.76 24.6792C223.44 25.8387 222.983 26.9304 222.391 27.9542C221.799 28.9658 221.083 29.8909 220.244 30.7298C219.406 31.5685 218.481 32.2902 217.469 32.8946C216.458 33.4867 215.366 33.9432 214.194 34.2639C213.022 34.597 211.807 34.7635 210.548 34.7635C209.291 34.7635 208.076 34.597 206.904 34.2639C205.744 33.9432 204.653 33.4867 203.628 32.8946C202.617 32.2902 201.692 31.5685 200.854 30.7298C200.015 29.8909 199.293 28.9658 198.688 27.9542C198.096 26.9304 197.634 25.8387 197.301 24.6792C196.98 23.5073 196.82 22.2922 196.82 21.034C196.82 19.7758 196.98 18.5607 197.301 17.3888C197.634 16.2171 198.096 15.1253 198.688 14.1138C199.293 13.1023 200.015 12.1772 200.854 11.3383C201.692 10.4995 202.617 9.78403 203.628 9.19193C204.653 8.59982 205.744 8.1434 206.904 7.82268C208.076 7.48962 209.291 7.3231 210.548 7.3231C211.807 7.3231 213.022 7.48962 214.194 7.82268C215.366 8.1434 216.458 8.59982 217.469 9.19193C218.481 9.78403 219.406 10.4995 220.244 11.3383C221.083 12.1772 221.799 13.1023 222.391 14.1138C222.983 15.1253 223.44 16.2171 223.76 17.3888C224.094 18.5607 224.26 19.7758 224.26 21.034ZM218.986 21.034C218.986 19.8745 218.764 18.7828 218.32 17.7589C217.876 16.7227 217.272 15.8284 216.507 15.076C215.755 14.3112 214.86 13.7067 213.824 13.2626C212.8 12.8185 211.708 12.5965 210.548 12.5965C209.377 12.5965 208.279 12.8185 207.256 13.2626C206.232 13.7067 205.337 14.3112 204.573 15.076C203.807 15.8284 203.203 16.7227 202.759 17.7589C202.315 18.7828 202.093 19.8745 202.093 21.034C202.093 22.1936 202.315 23.2853 202.759 24.3092C203.203 25.3206 203.807 26.2087 204.573 26.9736C205.337 27.7384 206.232 28.3428 207.256 28.7869C208.279 29.2309 209.377 29.4531 210.548 29.4531C211.708 29.4531 212.8 29.2309 213.824 28.7869C214.86 28.3428 215.755 27.7384 216.507 26.9736C217.272 26.2087 217.876 25.3206 218.32 24.3092C218.764 23.2853 218.986 22.1936 218.986 21.034ZM248.98 26.2335C248.98 27.3313 248.771 28.3614 248.352 29.3235C247.932 30.2857 247.358 31.1306 246.631 31.8584C245.915 32.5739 245.076 33.1414 244.114 33.5607C243.152 33.9802 242.122 34.1899 241.024 34.1899H227.757V7.65615H241.024C242.122 7.65615 243.152 7.86585 244.114 8.28526C245.076 8.70467 245.915 9.27827 246.631 10.0061C247.358 10.7216 247.932 11.5603 248.352 12.5225C248.771 13.4847 248.98 14.5147 248.98 15.6125C248.98 16.106 248.913 16.6118 248.777 17.1298C248.641 17.6479 248.449 18.1475 248.203 18.6286C247.957 19.1097 247.66 19.5476 247.315 19.9423C246.969 20.3371 246.587 20.664 246.167 20.9231C246.6 21.1574 246.988 21.4781 247.334 21.8852C247.679 22.2799 247.975 22.7178 248.222 23.1989C248.468 23.68 248.654 24.1858 248.777 24.7162C248.913 25.2343 248.98 25.74 248.98 26.2335ZM233.067 28.8795H241.024C241.394 28.8795 241.739 28.8116 242.06 28.6759C242.381 28.5402 242.658 28.3552 242.893 28.1207C243.139 27.8741 243.331 27.5903 243.466 27.2697C243.602 26.9489 243.669 26.6035 243.669 26.2335C243.669 25.8634 243.602 25.518 243.466 25.1973C243.331 24.8765 243.139 24.5989 242.893 24.3646C242.658 24.1179 242.381 23.9267 242.06 23.7911C241.739 23.6554 241.394 23.5875 241.024 23.5875H233.067V28.8795ZM233.067 18.2771H241.024C241.394 18.2771 241.739 18.2092 242.06 18.0735C242.381 17.9378 242.658 17.7527 242.893 17.5184C243.139 17.2717 243.331 16.988 243.466 16.6673C243.602 16.3342 243.669 15.9826 243.669 15.6125C243.669 15.2425 243.602 14.8971 243.466 14.5764C243.331 14.2557 243.139 13.9781 242.893 13.7437C242.658 13.4971 242.381 13.3058 242.06 13.1701C241.739 13.0344 241.394 12.9666 241.024 12.9666H233.067V18.2771ZM251.441 15.6125C251.441 14.5147 251.651 13.4847 252.071 12.5225C252.489 11.5603 253.057 10.7216 253.773 10.0061C254.5 9.27827 255.345 8.70467 256.307 8.28526C257.269 7.86585 258.3 7.65615 259.398 7.65615H271.573V12.9666H259.398C259.027 12.9666 258.682 13.0344 258.361 13.1701C258.041 13.3058 257.757 13.4971 257.511 13.7437C257.276 13.9781 257.091 14.2557 256.955 14.5764C256.82 14.8971 256.752 15.2425 256.752 15.6125C256.752 15.9826 256.82 16.3342 256.955 16.6673C257.091 16.988 257.276 17.2717 257.511 17.5184C257.757 17.7527 258.041 17.9378 258.361 18.0735C258.682 18.2092 259.027 18.2771 259.398 18.2771H264.708C265.806 18.2771 266.836 18.4867 267.798 18.9061C268.773 19.3133 269.618 19.8806 270.333 20.6084C271.061 21.3239 271.628 22.1689 272.036 23.1434C272.455 24.1056 272.664 25.1356 272.664 26.2335C272.664 27.3313 272.455 28.3614 272.036 29.3235C271.628 30.2857 271.061 31.1306 270.333 31.8584C269.618 32.5739 268.773 33.1414 267.798 33.5607C266.836 33.9802 265.806 34.1899 264.708 34.1899H252.921V28.8795H264.708C265.078 28.8795 265.423 28.8116 265.744 28.6759C266.065 28.5402 266.342 28.3552 266.577 28.1207C266.823 27.8741 267.015 27.5903 267.151 27.2697C267.286 26.9489 267.354 26.6035 267.354 26.2335C267.354 25.8634 267.286 25.518 267.151 25.1973C267.015 24.8765 266.823 24.5989 266.577 24.3646C266.342 24.1179 266.065 23.9267 265.744 23.7911C265.423 23.6554 265.078 23.5875 264.708 23.5875H259.398C258.3 23.5875 257.269 23.3778 256.307 22.9584C255.345 22.5389 254.5 21.9716 253.773 21.2561C253.057 20.5283 252.489 19.6833 252.071 18.7212C251.651 17.7466 251.441 16.7104 251.441 15.6125Z" fill="#F97C09"/>
<path d="M136.668 2.67674L126.638 10.6293C124.969 11.9479 124.648 14.3215 125.913 16.0155C127.249 17.8211 129.851 18.176 131.642 16.8066L141.932 8.97586C142.657 8.42812 143.694 8.54984 144.263 9.25988C144.834 9.96994 144.699 10.9843 143.974 11.5422L141.807 13.1855L156.211 26.1692V7.01817H156.138L155.734 6.76458L148.212 2.04784C146.626 1.05378 144.772 0.526316 142.885 0.526316C140.626 0.526316 138.429 1.28708 136.668 2.67674ZM139.031 15.2953L133.674 19.3729C130.409 21.8683 125.674 21.219 123.228 17.9326C120.928 14.8388 121.508 10.5177 124.544 8.11366L133.166 1.28708C131.964 0.790047 130.668 0.536459 129.353 0.536459C127.404 0.526316 125.508 1.09436 123.882 2.14927L116.421 7.01817V29.7397H119.343L128.814 38.1994C130.845 40.015 133.984 39.873 135.839 37.8849C136.409 37.2661 136.793 36.546 136.989 35.7954L138.751 37.3777C140.772 39.1934 143.921 39.0616 145.776 37.0836C146.242 36.5865 146.584 36.0083 146.802 35.4099C148.813 36.7285 151.547 36.4546 153.237 34.6492C155.092 32.6712 154.957 29.5875 152.936 27.7718L139.031 15.2953ZM113.105 7.01817H103.158V29.7397C103.158 31.5351 104.64 32.9856 106.474 32.9856H109.789C111.623 32.9856 113.105 31.5351 113.105 29.7397V7.01817ZM108.132 29.7397C107.22 29.7397 106.474 29.0094 106.474 28.1167C106.474 27.2241 107.22 26.4937 108.132 26.4937C109.043 26.4937 109.789 27.2241 109.789 28.1167C109.789 29.0094 109.043 29.7397 108.132 29.7397ZM159.526 7.01817V29.7397C159.526 31.5351 161.008 32.9856 162.842 32.9856H166.158C167.992 32.9856 169.474 31.5351 169.474 29.7397V7.01817H159.526ZM166.158 28.1167C166.158 29.0094 165.412 29.7397 164.5 29.7397C163.588 29.7397 162.842 29.0094 162.842 28.1167C162.842 27.2241 163.588 26.4937 164.5 26.4937C165.412 26.4937 166.158 27.2241 166.158 28.1167Z" fill="#F97C09"/>
</g>
<defs>
<clipPath id="clip0_109_687">
<rect width="272.632" height="40" fill="white"/>
</clipPath>
</defs>
</svg>
