<svg width="25" height="25" viewBox="0 0 25 25" fill="none" xmlns="http://www.w3.org/2000/svg">
<g clip-path="url(#clip0_136_650)">
<path d="M12.4975 12.5C14.1551 12.5 15.7448 11.8415 16.9169 10.6694C18.089 9.49732 18.7475 7.9076 18.7475 6.25C18.7475 4.5924 18.089 3.00269 16.9169 1.83058C15.7448 0.65848 14.1551 0 12.4975 0C10.8399 0 9.25018 0.65848 8.07808 1.83058C6.90598 3.00269 6.2475 4.5924 6.2475 6.25C6.2475 7.9076 6.90598 9.49732 8.07808 10.6694C9.25018 11.8415 10.8399 12.5 12.4975 12.5ZM10.2661 14.8438C5.45648 14.8438 1.56 18.7402 1.56 23.5498C1.56 24.3506 2.20941 25 3.01019 25H21.9848C22.7856 25 23.435 24.3506 23.435 23.5498C23.435 18.7402 19.5385 14.8438 14.7289 14.8438H10.2661Z" fill="#F97C09"/>
</g>
<defs>
<clipPath id="clip0_136_650">
<rect width="21.875" height="25" fill="white" transform="translate(1.56)"/>
</clipPath>
</defs>
</svg>
