<svg width="25" height="25" viewBox="0 0 25 25" fill="none" xmlns="http://www.w3.org/2000/svg">
<g clip-path="url(#clip0_136_669)">
<path d="M13.6572 24.375C16.1621 21.2402 21.875 13.6426 21.875 9.375C21.875 4.19922 17.6758 0 12.5 0C7.32422 0 3.125 4.19922 3.125 9.375C3.125 13.6426 8.83789 21.2402 11.3428 24.375C11.9434 25.1221 13.0566 25.1221 13.6572 24.375ZM12.5 6.25C13.3288 6.25 14.1237 6.57924 14.7097 7.16529C15.2958 7.75134 15.625 8.5462 15.625 9.375C15.625 10.2038 15.2958 10.9987 14.7097 11.5847C14.1237 12.1708 13.3288 12.5 12.5 12.5C11.6712 12.5 10.8763 12.1708 10.2903 11.5847C9.70424 10.9987 9.375 10.2038 9.375 9.375C9.375 8.5462 9.70424 7.75134 10.2903 7.16529C10.8763 6.57924 11.6712 6.25 12.5 6.25Z" fill="#FF0000"/>
</g>
<defs>
<clipPath id="clip0_136_669">
<rect width="18.75" height="25" fill="white" transform="translate(3.125)"/>
</clipPath>
</defs>
</svg>
