<svg width="25" height="25" viewBox="0 0 25 25" fill="none" xmlns="http://www.w3.org/2000/svg">
<g clip-path="url(#clip0_136_714)">
<path d="M6.24969 0C4.52605 0 3.12469 1.40137 3.12469 3.125V21.875C3.12469 23.5986 4.52605 25 6.24969 25H18.7497C20.4733 25 21.8747 23.5986 21.8747 21.875V7.8125H15.6247C14.7604 7.8125 14.0622 7.11426 14.0622 6.25V0H6.24969ZM15.6247 0V6.25H21.8747L15.6247 0ZM7.03094 3.125H10.1559C10.5856 3.125 10.9372 3.47656 10.9372 3.90625C10.9372 4.33594 10.5856 4.6875 10.1559 4.6875H7.03094C6.60125 4.6875 6.24969 4.33594 6.24969 3.90625C6.24969 3.47656 6.60125 3.125 7.03094 3.125ZM7.03094 6.25H10.1559C10.5856 6.25 10.9372 6.60156 10.9372 7.03125C10.9372 7.46094 10.5856 7.8125 10.1559 7.8125H7.03094C6.60125 7.8125 6.24969 7.46094 6.24969 7.03125C6.24969 6.60156 6.60125 6.25 7.03094 6.25ZM9.67742 18.6426C9.37957 19.6338 8.46648 20.3125 7.43133 20.3125H7.03094C6.60125 20.3125 6.24969 19.9609 6.24969 19.5312C6.24969 19.1016 6.60125 18.75 7.03094 18.75H7.43133C7.77801 18.75 8.08074 18.5254 8.1784 18.1934L8.90594 15.7764C9.07195 15.2246 9.57977 14.8438 10.1559 14.8438C10.7321 14.8438 11.2399 15.2197 11.4059 15.7764L11.9723 17.6611C12.3337 17.3584 12.7927 17.1875 13.2809 17.1875C14.0573 17.1875 14.7653 17.627 15.112 18.3203L15.3268 18.75H17.9684C18.3981 18.75 18.7497 19.1016 18.7497 19.5312C18.7497 19.9609 18.3981 20.3125 17.9684 20.3125H14.8434C14.5456 20.3125 14.277 20.1465 14.1452 19.8828L13.7155 19.0186C13.6325 18.8525 13.4665 18.75 13.2858 18.75C13.1052 18.75 12.9343 18.8525 12.8561 19.0186L12.4264 19.8828C12.2848 20.1709 11.9772 20.3418 11.6598 20.3125C11.3425 20.2832 11.069 20.0635 10.9811 19.7607L10.1559 17.041L9.67742 18.6426Z" fill="#FF0000"/>
</g>
<defs>
<clipPath id="clip0_136_714">
<rect width="18.75" height="25" fill="white" transform="translate(3.12469)"/>
</clipPath>
</defs>
</svg>
