<svg width="25" height="25" viewBox="0 0 25 25" fill="none" xmlns="http://www.w3.org/2000/svg">
<path d="M2.77778 2.77832C1.24566 2.77832 0 4.02398 0 5.5561V19.445C0 20.9771 1.24566 22.2228 2.77778 22.2228H22.2222C23.7543 22.2228 25 20.9771 25 19.445V5.5561C25 4.02398 23.7543 2.77832 22.2222 2.77832H2.77778ZM6.25 13.8894H9.02778C10.9462 13.8894 12.5 15.4433 12.5 17.3617C12.5 17.7436 12.1875 18.0561 11.8056 18.0561H3.47222C3.09028 18.0561 2.77778 17.7436 2.77778 17.3617C2.77778 15.4433 4.3316 13.8894 6.25 13.8894ZM4.86111 9.72277C4.86111 8.98605 5.15377 8.27951 5.6747 7.75858C6.19564 7.23765 6.90218 6.94499 7.63889 6.94499C8.3756 6.94499 9.08214 7.23765 9.60307 7.75858C10.124 8.27951 10.4167 8.98605 10.4167 9.72277C10.4167 10.4595 10.124 11.166 9.60307 11.687C9.08214 12.2079 8.3756 12.5005 7.63889 12.5005C6.90218 12.5005 6.19564 12.2079 5.6747 11.687C5.15377 11.166 4.86111 10.4595 4.86111 9.72277ZM15.9722 8.33388H21.5278C21.9097 8.33388 22.2222 8.64638 22.2222 9.02832C22.2222 9.41027 21.9097 9.72277 21.5278 9.72277H15.9722C15.5903 9.72277 15.2778 9.41027 15.2778 9.02832C15.2778 8.64638 15.5903 8.33388 15.9722 8.33388ZM15.9722 11.1117H21.5278C21.9097 11.1117 22.2222 11.4242 22.2222 11.8061C22.2222 12.188 21.9097 12.5005 21.5278 12.5005H15.9722C15.5903 12.5005 15.2778 12.188 15.2778 11.8061C15.2778 11.4242 15.5903 11.1117 15.9722 11.1117ZM15.9722 13.8894H21.5278C21.9097 13.8894 22.2222 14.2019 22.2222 14.5839C22.2222 14.9658 21.9097 15.2783 21.5278 15.2783H15.9722C15.5903 15.2783 15.2778 14.9658 15.2778 14.5839C15.2778 14.2019 15.5903 13.8894 15.9722 13.8894Z" fill="#FF0000"/>
</svg>
