<svg width="25" height="25" viewBox="0 0 25 25" fill="none" xmlns="http://www.w3.org/2000/svg">
<g clip-path="url(#clip0_136_682)">
<path d="M6.25 1.5625V3.125H3.90625C2.6123 3.125 1.5625 4.1748 1.5625 5.46875V7.8125H23.4375V5.46875C23.4375 4.1748 22.3877 3.125 21.0938 3.125H18.75V1.5625C18.75 0.698242 18.0518 0 17.1875 0C16.3232 0 15.625 0.698242 15.625 1.5625V3.125H9.375V1.5625C9.375 0.698242 8.67676 0 7.8125 0C6.94824 0 6.25 0.698242 6.25 1.5625ZM23.4375 9.375H1.5625V22.6562C1.5625 23.9502 2.6123 25 3.90625 25H21.0938C22.3877 25 23.4375 23.9502 23.4375 22.6562V9.375Z" fill="#F97C09"/>
</g>
<defs>
<clipPath id="clip0_136_682">
<rect width="21.875" height="25" fill="white" transform="translate(1.5625)"/>
</clipPath>
</defs>
</svg>
