<svg width="25" height="25" viewBox="0 0 25 25" fill="none" xmlns="http://www.w3.org/2000/svg">
<g clip-path="url(#clip0_136_675)">
<path d="M6.875 13.75C7.44953 13.75 8.01844 13.6368 8.54924 13.417C9.08004 13.1971 9.56234 12.8748 9.96859 12.4686C10.3748 12.0623 10.6971 11.58 10.917 11.0492C11.1368 10.5184 11.25 9.94953 11.25 9.375C11.25 8.80047 11.1368 8.23156 10.917 7.70076C10.6971 7.16996 10.3748 6.68766 9.96859 6.28141C9.56234 5.87515 9.08004 5.55289 8.54924 5.33303C8.01844 5.11316 7.44953 5 6.875 5C6.30047 5 5.73156 5.11316 5.20076 5.33303C4.66996 5.55289 4.18766 5.87515 3.78141 6.28141C3.37515 6.68766 3.05289 7.16996 2.83303 7.70076C2.61316 8.23156 2.5 8.80047 2.5 9.375C2.5 9.94953 2.61316 10.5184 2.83303 11.0492C3.05289 11.58 3.37515 12.0623 3.78141 12.4686C4.18766 12.8748 4.66996 13.1971 5.20076 13.417C5.73156 13.6368 6.30047 13.75 6.875 13.75ZM13.75 9.375C13.75 12.7461 11.3242 15.5508 8.125 16.1367V17.5H9.375C10.0664 17.5 10.625 18.0586 10.625 18.75C10.625 19.4414 10.0664 20 9.375 20H8.125V21.25C8.125 21.9414 7.56641 22.5 6.875 22.5C6.18359 22.5 5.625 21.9414 5.625 21.25V20H4.375C3.68359 20 3.125 19.4414 3.125 18.75C3.125 18.0586 3.68359 17.5 4.375 17.5H5.625V16.1367C2.42578 15.5508 0 12.7461 0 9.375C0 5.57813 3.07813 2.5 6.875 2.5C10.6719 2.5 13.75 5.57813 13.75 9.375ZM10.6211 16.5859C11.375 16.1914 12.0625 15.6836 12.6562 15.0859C13.4375 15.8086 14.4805 16.25 15.6289 16.25C18.0469 16.25 20.0039 14.293 20.0039 11.875C20.0039 9.45703 18.0469 7.5 15.6289 7.5C15.3477 7.5 15.0703 7.52734 14.8047 7.57812C14.6133 6.73828 14.2969 5.94922 13.8672 5.22656C14.4258 5.07813 15.0156 5 15.625 5C17.0703 5 18.4141 5.44531 19.5234 6.21094L20.3281 5.40625L19.0234 4.10156C18.7539 3.83203 18.6758 3.42969 18.8203 3.07813C18.9648 2.72656 19.3086 2.5 19.6875 2.5H24.0625C24.582 2.5 25 2.91797 25 3.4375V7.8125C25 8.19141 24.7734 8.53516 24.4219 8.67969C24.0703 8.82422 23.668 8.74609 23.3984 8.47656L22.0937 7.17187L21.2891 7.97656C22.0508 9.08594 22.5 10.4258 22.5 11.875C22.5 15.6719 19.4219 18.75 15.625 18.75C13.6523 18.75 11.875 17.918 10.6211 16.5859Z" fill="#FF0000"/>
</g>
<defs>
<clipPath id="clip0_136_675">
<rect width="25" height="20" fill="white" transform="translate(0 2.5)"/>
</clipPath>
</defs>
</svg>
