<svg width="25" height="25" viewBox="0 0 25 25" fill="none" xmlns="http://www.w3.org/2000/svg">
<g clip-path="url(#clip0_136_700)">
<path d="M5.46875 0C4.1748 0 3.125 1.0498 3.125 2.34375V22.6562C3.125 23.9502 4.1748 25 5.46875 25H10.1562V21.0938C10.1562 19.7998 11.2061 18.75 12.5 18.75C13.7939 18.75 14.8438 19.7998 14.8438 21.0938V25H19.5312C20.8252 25 21.875 23.9502 21.875 22.6562V2.34375C21.875 1.0498 20.8252 0 19.5312 0H5.46875ZM6.25 11.7188C6.25 11.2891 6.60156 10.9375 7.03125 10.9375H8.59375C9.02344 10.9375 9.375 11.2891 9.375 11.7188V13.2812C9.375 13.7109 9.02344 14.0625 8.59375 14.0625H7.03125C6.60156 14.0625 6.25 13.7109 6.25 13.2812V11.7188ZM11.7188 10.9375H13.2812C13.7109 10.9375 14.0625 11.2891 14.0625 11.7188V13.2812C14.0625 13.7109 13.7109 14.0625 13.2812 14.0625H11.7188C11.2891 14.0625 10.9375 13.7109 10.9375 13.2812V11.7188C10.9375 11.2891 11.2891 10.9375 11.7188 10.9375ZM15.625 11.7188C15.625 11.2891 15.9766 10.9375 16.4062 10.9375H17.9688C18.3984 10.9375 18.75 11.2891 18.75 11.7188V13.2812C18.75 13.7109 18.3984 14.0625 17.9688 14.0625H16.4062C15.9766 14.0625 15.625 13.7109 15.625 13.2812V11.7188ZM7.03125 4.6875H8.59375C9.02344 4.6875 9.375 5.03906 9.375 5.46875V7.03125C9.375 7.46094 9.02344 7.8125 8.59375 7.8125H7.03125C6.60156 7.8125 6.25 7.46094 6.25 7.03125V5.46875C6.25 5.03906 6.60156 4.6875 7.03125 4.6875ZM10.9375 5.46875C10.9375 5.03906 11.2891 4.6875 11.7188 4.6875H13.2812C13.7109 4.6875 14.0625 5.03906 14.0625 5.46875V7.03125C14.0625 7.46094 13.7109 7.8125 13.2812 7.8125H11.7188C11.2891 7.8125 10.9375 7.46094 10.9375 7.03125V5.46875ZM16.4062 4.6875H17.9688C18.3984 4.6875 18.75 5.03906 18.75 5.46875V7.03125C18.75 7.46094 18.3984 7.8125 17.9688 7.8125H16.4062C15.9766 7.8125 15.625 7.46094 15.625 7.03125V5.46875C15.625 5.03906 15.9766 4.6875 16.4062 4.6875Z" fill="#FF0000"/>
</g>
<defs>
<clipPath id="clip0_136_700">
<rect width="18.75" height="25" fill="white" transform="translate(3.125)"/>
</clipPath>
</defs>
</svg>
