<svg width="25" height="25" viewBox="0 0 25 25" fill="none" xmlns="http://www.w3.org/2000/svg">
<path d="M8.98438 2.34375H16.0156C16.2305 2.34375 16.4062 2.51953 16.4062 2.73438V4.6875H8.59375V2.73438C8.59375 2.51953 8.76953 2.34375 8.98438 2.34375ZM6.25 2.73438V4.6875H3.125C1.40137 4.6875 0 6.08887 0 7.8125V12.5H9.375H15.625H25V7.8125C25 6.08887 23.5986 4.6875 21.875 4.6875H18.75V2.73438C18.75 1.22559 17.5244 0 16.0156 0H8.98438C7.47559 0 6.25 1.22559 6.25 2.73438ZM25 14.0625H15.625V15.625C15.625 16.4893 14.9268 17.1875 14.0625 17.1875H10.9375C10.0732 17.1875 9.375 16.4893 9.375 15.625V14.0625H0V20.3125C0 22.0361 1.40137 23.4375 3.125 23.4375H21.875C23.5986 23.4375 25 22.0361 25 20.3125V14.0625Z" fill="#F97C09"/>
</svg>
